<svg width="28" height="28" viewBox="0 0 28 28" fill="none" xmlns="http://www.w3.org/2000/svg">
<g clip-path="url(#clip0_2046_11895)">
<path d="M14 28C21.732 28 28 21.732 28 14C28 6.26801 21.732 0 14 0C6.26801 0 0 6.26801 0 14C0 21.732 6.26801 28 14 28Z" fill="white"/>
<path d="M13.9999 6.78258C16.3436 6.78258 16.6339 6.78258 17.5673 6.82407C18.4177 6.86555 18.8947 7.01073 19.2058 7.13518C19.6206 7.3011 19.911 7.48777 20.2221 7.79888C20.5332 8.10999 20.7199 8.40036 20.8858 8.81518C21.0102 9.12629 21.1554 9.58258 21.1969 10.4537C21.2384 11.387 21.2384 11.6567 21.2384 14.0211C21.2384 16.3855 21.2384 16.6552 21.1969 17.5885C21.1554 18.4389 21.0102 18.9159 20.8858 19.227C20.7199 19.6418 20.5332 19.9322 20.2221 20.2433C19.911 20.5544 19.6206 20.7411 19.2058 20.907C18.8947 21.0315 18.4384 21.1767 17.5673 21.2181C16.6339 21.2596 16.3643 21.2596 13.9999 21.2596C11.6562 21.2596 11.3658 21.2596 10.4325 21.2181C9.5821 21.1767 9.10506 21.0315 8.79395 20.907C8.37913 20.7411 8.08876 20.5544 7.77765 20.2433C7.46654 19.9322 7.27987 19.6418 7.11395 19.227C6.9895 18.9159 6.84432 18.4596 6.80284 17.5885C6.76135 16.6552 6.76135 16.3855 6.76135 14.0211C6.76135 11.6567 6.76135 11.387 6.80284 10.4537C6.84432 9.60333 6.9895 9.12629 7.11395 8.81518C7.27987 8.40036 7.46654 8.10999 7.77765 7.79888C8.08876 7.48777 8.37913 7.3011 8.79395 7.13518C9.10506 7.01073 9.56136 6.86555 10.4325 6.82407C11.3658 6.78258 11.6562 6.78258 13.9999 6.78258ZM13.9999 5.18555C11.6147 5.18555 11.3036 5.18555 10.3702 5.24777C9.43691 5.28925 8.79395 5.43444 8.23395 5.66258C7.65321 5.89073 7.15543 6.1811 6.67839 6.67888C6.18061 7.17666 5.89024 7.6537 5.6621 8.23444C5.43395 8.79444 5.28876 9.4374 5.24728 10.3707C5.18506 11.3041 5.18506 11.6152 5.18506 14.0004C5.18506 16.3855 5.18506 16.6967 5.24728 17.63C5.28876 18.5633 5.43395 19.2063 5.6621 19.7663C5.89024 20.347 6.18061 20.8448 6.67839 21.3218C7.17617 21.8196 7.65321 22.11 8.23395 22.3381C8.79395 22.5663 9.43691 22.7115 10.3702 22.753C11.3036 22.7944 11.6147 22.8152 13.9999 22.8152C16.3851 22.8152 16.6962 22.8152 17.6295 22.753C18.5628 22.7115 19.2058 22.5663 19.7658 22.3381C20.3465 22.11 20.8443 21.8196 21.3214 21.3218C21.8191 20.8241 22.1095 20.347 22.3377 19.7663C22.5658 19.2063 22.711 18.5633 22.7525 17.63C22.7939 16.6967 22.8147 16.3855 22.8147 14.0004C22.8147 11.6152 22.8147 11.3041 22.7525 10.3707C22.711 9.4374 22.5658 8.79444 22.3377 8.23444C22.1095 7.6537 21.8191 7.15592 21.3214 6.67888C20.8236 6.1811 20.3465 5.89073 19.7658 5.66258C19.2058 5.43444 18.5628 5.28925 17.6295 5.24777C16.6962 5.18555 16.3851 5.18555 13.9999 5.18555Z" fill="#004E75"/>
<path d="M14 9.47852C11.4904 9.47852 9.47852 11.5111 9.47852 14C9.47852 16.4889 11.5111 18.5215 14 18.5215C16.5096 18.5215 18.5215 16.4889 18.5215 14C18.5215 11.5111 16.5096 9.47852 14 9.47852ZM14 16.9452C12.3822 16.9452 11.0548 15.6385 11.0548 14C11.0548 12.3615 12.3615 11.0548 14 11.0548C15.6385 11.0548 16.9452 12.3615 16.9452 14C16.9452 15.6385 15.6178 16.9452 14 16.9452Z" fill="#004E75"/>
<path d="M18.7082 10.3499C19.2924 10.3499 19.7659 9.87635 19.7659 9.29215C19.7659 8.70796 19.2924 8.23438 18.7082 8.23438C18.124 8.23438 17.6504 8.70796 17.6504 9.29215C17.6504 9.87635 18.124 10.3499 18.7082 10.3499Z" fill="#004E75"/>
</g>
<defs>
<clipPath id="clip0_2046_11895">
<rect width="28" height="28" fill="white"/>
</clipPath>
</defs>
</svg>
