<svg width="28" height="28" viewBox="0 0 28 28" fill="none" xmlns="http://www.w3.org/2000/svg">
<g clip-path="url(#clip0_2046_11903)">
<path d="M14 0C6.28246 0 0 6.28246 0 14C0 21.7494 6.28246 28 14 28C21.7175 28 28 21.7175 28 14C28 6.28246 21.7494 0 14 0ZM21.9727 17.1891C20.5057 19.4214 18.4966 21.0159 16.2642 22.3872C15.467 22.8656 14.6378 23.3121 13.7768 23.7267C13.5854 23.8223 13.3941 23.8542 13.1708 23.7267C12.9795 23.5991 12.9476 23.4077 12.9795 23.1845C13.0433 22.6743 13.0752 22.1959 13.139 21.6856C13.1708 21.303 13.0114 21.0797 12.6287 21.0159C10.9066 20.7927 9.28018 20.2506 7.8451 19.2301C6.44191 18.2415 5.38952 16.9339 4.97494 15.2437C4.49658 13.2665 4.97494 11.5125 6.25057 9.94989C7.5262 8.35535 9.2164 7.43052 11.1936 6.95216C13.9362 6.28246 16.5513 6.53759 19.0387 7.87699C20.6333 8.73804 21.9089 9.94989 22.6105 11.672C22.8975 12.4055 23.0251 13.139 23.0569 14.0319C22.9932 15.1162 22.6105 16.2005 21.9727 17.1891Z" fill="white"/>
<path d="M16.7745 11.7998C16.4875 11.7998 16.2962 12.023 16.2962 12.3738C16.2962 12.9479 16.2962 13.5538 16.2962 14.1278C16.2962 14.1916 16.328 14.2873 16.2324 14.3192C15.6583 13.5538 15.0843 12.8203 14.5103 12.0549C14.3508 11.8636 14.1914 11.736 13.9362 11.7998C13.6811 11.8955 13.5854 12.0868 13.5854 12.3738C13.5854 13.4581 13.5854 14.5743 13.5854 15.6586C13.5854 16.0412 13.7449 16.2326 14.0638 16.2326C14.3508 16.2326 14.5103 16.0412 14.5103 15.6586C14.5103 15.0207 14.5103 14.3829 14.5103 13.6495C14.6378 13.8089 14.7335 13.9365 14.8292 14.0321C15.3394 14.67 15.8178 15.3078 16.328 15.9775C16.4875 16.1688 16.647 16.2964 16.8702 16.2326C17.1253 16.1369 17.221 15.9456 17.221 15.6905C17.221 14.5743 17.221 13.4581 17.221 12.3738C17.2529 11.9911 17.0615 11.7679 16.7745 11.7998Z" fill="white"/>
<path d="M20.2825 15.3078C19.9954 15.3078 19.7403 15.3078 19.4533 15.3078C18.8474 15.3078 18.8474 15.3078 18.8793 14.7019C18.8793 14.5424 18.9112 14.4786 19.1025 14.4786C19.4852 14.4786 19.8679 14.4786 20.2825 14.4786C20.6014 14.4786 20.7608 14.2873 20.7608 14.0003C20.7608 13.7451 20.5695 13.5538 20.2825 13.5538C20.0273 13.5538 19.7403 13.5538 19.4852 13.5538C18.8793 13.5538 18.8793 13.5538 18.9112 12.9479C18.9112 12.7565 18.9749 12.7246 19.1344 12.7246C19.5171 12.7246 19.8998 12.7246 20.2825 12.7246C20.6014 12.7246 20.7927 12.5333 20.7927 12.2463C20.7927 11.9593 20.5695 11.7998 20.2506 11.7998C19.6765 11.7998 19.1025 11.7998 18.5285 11.7998C18.1458 11.7998 17.9863 11.9593 17.9863 12.3419C17.9863 12.916 17.9863 13.4581 17.9863 14.0321C17.9863 14.6062 17.9863 15.1802 17.9863 15.7542C17.9863 16.105 18.1458 16.2645 18.4966 16.2645C19.1025 16.2645 19.7084 16.2645 20.3143 16.2645C20.6014 16.2645 20.8246 16.0732 20.8246 15.818C20.7927 15.4991 20.6014 15.3078 20.2825 15.3078Z" fill="white"/>
<path d="M11.0022 15.3078C10.6514 15.3078 10.3006 15.3078 9.94979 15.3078C9.72656 15.3078 9.66277 15.2759 9.66277 15.0527C9.66277 14.1597 9.66277 13.2668 9.66277 12.3738C9.66277 11.9911 9.47143 11.7998 9.18441 11.7998C8.86551 11.7998 8.70605 11.9911 8.70605 12.3738C8.70605 12.916 8.70605 13.4581 8.70605 14.0322C8.70605 14.6062 8.70605 15.1802 8.70605 15.7224C8.70605 16.0732 8.8974 16.2326 9.2482 16.2326C9.82223 16.2326 10.3963 16.2326 10.9703 16.2326C11.3211 16.2326 11.5124 16.0732 11.5124 15.7861C11.5443 15.4991 11.353 15.3078 11.0022 15.3078Z" fill="white"/>
<path d="M12.4374 11.7676C12.0866 11.7676 11.991 11.8951 11.991 12.2459C11.991 12.82 11.991 13.4259 11.991 13.9999C11.991 14.574 11.991 15.1799 11.991 15.7539C11.991 16.1047 12.1185 16.2004 12.4374 16.2323C12.7882 16.2323 12.9477 16.1047 12.9477 15.7539C12.9477 14.574 12.9477 13.394 12.9477 12.214C12.9477 11.8951 12.7882 11.7676 12.4374 11.7676Z" fill="white"/>
</g>
<defs>
<clipPath id="clip0_2046_11903">
<rect width="28" height="28" fill="white"/>
</clipPath>
</defs>
</svg>
